<?xml version="1.0" encoding="iso-8859-1"?>
<!-- Generator: Adobe Illustrator 19.0.0, SVG Export Plug-In . SVG Version: 6.00 Build 0)  -->
<svg version="1.1" id="Layer_1" xmlns="http://www.w3.org/2000/svg" xmlns:xlink="http://www.w3.org/1999/xlink" x="0px" y="0px"
	 viewBox="0 0 484.79 484.79" style="enable-background:new 0 0 484.79 484.79;" xml:space="preserve">
<g>
	<path style="fill:#96C8EF;" d="M221.043,195.84h42.7c-1.16-20.39-4.06-39.55-8.47-55.33c-4.68-16.77-9.86-25.36-12.88-28.91
		c-3.01,3.55-8.19,12.14-12.88,28.91C225.113,156.29,222.203,175.45,221.043,195.84z"/>
	<path style="fill:#96C8EF;" d="M193.143,122.29c-27.9,14.75-48.45,41.62-54.59,73.55h42.42
		C182.293,169.24,186.273,143.49,193.143,122.29z"/>
	<path style="fill:#96C8EF;" d="M193.143,309.39c-6.87-21.21-10.85-46.96-12.17-73.55h-42.42
		C144.693,267.77,165.243,294.64,193.143,309.39z"/>
	<path style="fill:#96C8EF;" d="M291.643,122.29c6.87,21.2,10.86,46.95,12.17,73.55h42.42
		C340.093,163.91,319.553,137.04,291.643,122.29z"/>
	<path style="fill:#96C8EF;" d="M303.813,235.84c-1.31,26.59-5.3,52.34-12.17,73.55c27.91-14.75,48.45-41.62,54.59-73.55H303.813z"
		/>
	<path style="fill:#96C8EF;" d="M229.513,291.17c4.69,16.76,9.87,25.36,12.88,28.91c3.02-3.55,8.2-12.15,12.88-28.91
		c4.41-15.78,7.31-34.94,8.47-55.33h-42.7C222.203,256.23,225.113,275.39,229.513,291.17z"/>
	<polygon style="fill:#3D9AE2;" points="381.441,338.563 346.561,358.143 365.386,391.676 305.436,391.676 305.436,379.917 
		265.436,379.917 265.436,431.676 365.386,431.676 346.561,465.21 381.441,484.79 411.257,431.676 455.449,431.676 455.449,391.676 
		411.257,391.676 	"/>
	<path style="fill:#96C8EF;" d="M66.557,215.838C66.557,118.88,145.437,40,242.395,40s175.838,78.88,175.838,175.838h40
		c0-57.652-22.451-111.854-63.218-152.621C354.249,22.451,300.048,0,242.395,0C184.742,0,130.541,22.451,89.774,63.217
		c-40.766,40.767-63.217,94.968-63.217,152.621c0,57.653,22.451,111.854,63.217,152.621c40.767,40.767,94.968,63.218,152.621,63.218
		v-40C145.437,391.676,66.557,312.795,66.557,215.838z"/>
	<path style="fill:#165C92;" d="M242.393,70.1v41.5c3.02,3.55,8.2,12.14,12.88,28.91c4.41,15.78,7.31,34.94,8.47,55.33h-21.35v40
		h21.35c-1.16,20.39-4.06,39.55-8.47,55.33c-4.68,16.76-9.86,25.36-12.88,28.91v41.5c80.36,0,145.74-65.38,145.74-145.74
		S322.753,70.1,242.393,70.1z M291.643,309.39c6.87-21.21,10.86-46.96,12.17-73.55h42.42
		C340.093,267.77,319.553,294.64,291.643,309.39z M303.813,195.84c-1.31-26.6-5.3-52.35-12.17-73.55
		c27.91,14.75,48.45,41.62,54.59,73.55H303.813z"/>
	<path style="fill:#1E81CE;" d="M242.393,320.08c-3.01-3.55-8.19-12.15-12.88-28.91c-4.4-15.78-7.31-34.94-8.47-55.33h21.35v-40
		h-21.35c1.16-20.39,4.07-39.55,8.47-55.33c4.69-16.77,9.87-25.36,12.88-28.91V70.1c-80.36,0-145.74,65.38-145.74,145.74
		s65.38,145.74,145.74,145.74V320.08z M180.973,235.84c1.32,26.59,5.3,52.34,12.17,73.55c-27.9-14.75-48.45-41.62-54.59-73.55
		H180.973z M138.553,195.84c6.14-31.93,26.69-58.8,54.59-73.55c-6.87,21.2-10.85,46.95-12.17,73.55H138.553z"/>
</g>
<g>
</g>
<g>
</g>
<g>
</g>
<g>
</g>
<g>
</g>
<g>
</g>
<g>
</g>
<g>
</g>
<g>
</g>
<g>
</g>
<g>
</g>
<g>
</g>
<g>
</g>
<g>
</g>
<g>
</g>
</svg>
